<svg width="24" height="24" viewBox="0 0 24 24" fill="none" xmlns="http://www.w3.org/2000/svg">
<path d="M16.7719 7.22807C16.4678 6.92398 15.9748 6.92398 15.6707 7.22807L12 10.8988L8.32928 7.22807C8.02519 6.92398 7.53216 6.92398 7.22807 7.22807C6.92398 7.53216 6.92398 8.02519 7.22807 8.32928L10.8988 12L7.22807 15.6707C6.92398 15.9748 6.92398 16.4678 7.22807 16.7719C7.53216 17.076 8.02519 17.076 8.32928 16.7719L12 13.1012L15.6707 16.7719C15.9748 17.076 16.4678 17.076 16.7719 16.7719C17.076 16.4678 17.076 15.9748 16.7719 15.6707L13.1012 12L16.7719 8.32928C17.076 8.02519 17.076 7.53216 16.7719 7.22807Z" fill="#111111"/>
</svg>
