<svg width="321" height="321" fill="none" xmlns="http://www.w3.org/2000/svg"><path d="M107.03.089V320.91M213.97.089V320.91m106.941-213.88H.089m320.822 106.94H.089M.089.089 320.91 320.91m-320.821.001L320.91.089" stroke="#001" stroke-width=".25"/><rect x="40.191" y="40.191" width="240.617" height="240.617" rx="2" stroke="#001" stroke-width=".25"/><rect x="53.559" y="26.824" width="213.882" height="267.352" rx="2" stroke="#001" stroke-width=".25"/><rect x="26.824" y="53.559" width="267.352" height="213.882" rx="2" stroke="#001" stroke-width=".25"/><rect x="26.824" y="26.824" width="267.352" height="267.352" rx="133.332" stroke="#001" stroke-width=".25"/><rect x="107.03" y="107.03" width="106.941" height="106.941" rx="53.333" stroke="#001" stroke-width=".25"/><g filter="url(#a)"><path fill-rule="evenodd" clip-rule="evenodd" d="M123.975 230.305c9.49-5.644 17.01-12.976 20.326-22.493l-.798.165c-.847.174-2.083.424-3.638.73-3.11.611-7.498 1.444-12.607 2.333-10.216 1.778-24.532 3.778-36.091 4.668.142-.048 3.678-1.247 6.664-2.077a511.96 511.96 0 0 0 14.624-4.309c12.086-3.751 28.156-9.199 44.093-15.988 15.942-6.79 31.734-14.913 43.278-24.011 8.043-6.339 13.984-13.119 16.509-20.221 1.515-4.26-3.033-7.183-7.222-5.479a493.656 493.656 0 0 1-23.93 8.983c-17.999 6.246-43.604 13.688-69.855 18.578-.866.161-1.229-1.219-.394-1.5a778.2 778.2 0 0 0 17.718-6.224c14.701-5.357 34.39-12.999 54.346-22.139 19.958-9.142 40.172-19.776 55.928-31.117 7.878-5.67 14.634-11.51 19.685-17.423 4.252-4.978 7.287-9.995 8.774-14.993.408-1.375-.533-2.742-1.947-2.977a255.295 255.295 0 0 0-8.047-1.195c-6.919-.922-16.769-1.99-28.493-2.573-23.451-1.165-54.384-.388-84.338 7.377-29.954 7.764-58.906 22.508-78.433 49.257-19.102 26.167-29.217 63.864-22.374 117.857.239 1.886 1.895 3.285 3.792 3.169a228.21 228.21 0 0 0 9.657-.806c8.05-.836 18.916-2.362 30.186-5.116 11.272-2.754 22.935-6.735 32.587-12.476Zm-32.808-14.597a5.389 5.389 0 0 1-.004-.219v-.12a11.83 11.83 0 0 1 .004.339Z" fill="url(#b)"/></g><path d="M91.167 215.708a5.298 5.298 0 0 1-.004-.219v-.12c0-.001 0-.001 0 0l.002.162.002.177Z" fill="url(#c)"/><path fill-rule="evenodd" clip-rule="evenodd" d="M40.364 267.318c-2.749.157-5.173-1.803-5.628-4.519-11.01-65.769-1.25-111.619 19.867-142.996 21.621-32.124 55.06-49.277 90-57.877 34.94-8.6 71.408-8.654 99.133-6.56 13.864 1.046 25.546 2.63 33.762 3.952l1.173.19.583.095 1.593.26c5.964.982 10.646 5.9 9.914 11.9-2.126 17.406-13.672 31.645-25.4 41.693-6.974 5.975-14.077 10.576-19.435 13.683-.196.114-.411.236-.641.364-.152.086-.311.174-.475.264l-.275.151c-4.503 2.46-7.298 7.123-7.96 12.212-3.132 24.04-19.301 39.338-35.427 48.771-8.98 5.253-17.958 8.695-24.689 10.824a120.237 120.237 0 0 1-8.136 2.272c-.983.235-1.755.404-2.282.514-.4.083-.731.368-.874.75-9.298 24.936-27.36 39.43-43.152 47.697a111.076 111.076 0 0 1-20.789 8.311c-13.414 4.252-34.008 5.954-45.41 6.896-1.15.095-2.207.183-3.153.264a426.99 426.99 0 0 1-12.3.889Zm83.611-37.013c9.49-5.644 17.01-12.976 20.326-22.493l-.798.165c-.847.174-2.083.424-3.638.73-3.11.611-7.498 1.444-12.607 2.333-10.216 1.778-24.532 3.778-36.091 4.668.142-.048 3.678-1.247 6.664-2.077a512.066 512.066 0 0 0 14.624-4.309c12.086-3.751 28.156-9.199 44.093-15.988 15.942-6.79 31.734-14.913 43.278-24.011 8.043-6.339 13.984-13.119 16.509-20.221 1.515-4.26-3.033-7.183-7.222-5.479a493.656 493.656 0 0 1-23.93 8.983c-17.999 6.246-43.603 13.688-69.855 18.578-.866.161-1.229-1.219-.394-1.5a778.2 778.2 0 0 0 17.718-6.224c14.701-5.357 34.39-12.999 54.346-22.139 19.958-9.142 40.172-19.776 55.928-31.117 7.878-5.67 14.634-11.51 19.685-17.423 4.253-4.978 7.287-9.995 8.774-14.993.408-1.375-.532-2.742-1.947-2.977a255.295 255.295 0 0 0-8.047-1.195c-6.918-.922-16.769-1.99-28.493-2.573-23.451-1.165-54.384-.388-84.338 7.377-29.954 7.764-58.906 22.508-78.433 49.257-19.102 26.167-29.217 63.864-22.374 117.857.239 1.886 1.895 3.285 3.793 3.169 2.312-.141 5.632-.387 9.656-.806 8.05-.836 18.916-2.362 30.186-5.116 11.272-2.754 22.935-6.735 32.587-12.476Z" fill="url(#d)"/><defs><linearGradient id="b" x1="204.677" y1="87.364" x2="106.607" y2="244.987" gradientUnits="userSpaceOnUse"><stop stop-color="#FF017B"/><stop offset="1" stop-color="#1D193D" stop-opacity="0"/></linearGradient><linearGradient id="c" x1="160.395" y1="54.476" x2="30.166" y2="272.018" gradientUnits="userSpaceOnUse"><stop stop-color="#FF007A"/><stop offset=".802" stop-color="#0F074A"/></linearGradient><linearGradient id="d" x1="160.395" y1="54.476" x2="30.166" y2="272.018" gradientUnits="userSpaceOnUse"><stop stop-color="#FF007A"/><stop offset=".802" stop-color="#0F074A"/></linearGradient><filter id="a" x="41.601" y="70.609" width="229.88" height="182.112" filterUnits="userSpaceOnUse" color-interpolation-filters="sRGB"><feFlood flood-opacity="0" result="BackgroundImageFix"/><feBlend in="SourceGraphic" in2="BackgroundImageFix" result="shape"/><feColorMatrix in="SourceAlpha" values="0 0 0 0 0 0 0 0 0 0 0 0 0 0 0 0 0 0 127 0" result="hardAlpha"/><feOffset dx="-10" dy="4"/><feGaussianBlur stdDeviation="2"/><feComposite in2="hardAlpha" operator="arithmetic" k2="-1" k3="1"/><feColorMatrix values="0 0 0 0 0.266667 0 0 0 0 0.266667 0 0 0 0 0.266667 0 0 0 0.55 0"/><feBlend in2="shape" result="effect1_innerShadow_23_182"/></filter></defs></svg>